<?xml version="1.0" encoding="UTF-8"?>
<svg xmlns="http://www.w3.org/2000/svg" width="1500.00" height="1500.00"
      viewBox="0 0 1500.00 1500.00" preserveAspectRatio="xMidYMid meet">
  <g fill="#000" stroke="none" fill-rule="evenodd">
    <path d="M 495.000 379.000 C 491.209 379.500 491.392 379.941 487.833 381.000 C 484.274 382.059 484.140 381.736 480.764 383.236 C 477.387 384.736 477.197 384.630 474.327 387.000 C 471.458 389.370 471.252 389.580 469.285 392.715 C 467.318 395.850 467.531 395.986 466.460 399.540 C 465.389 403.094 465.201 403.152 465.000 406.931 C 464.799 410.710 464.962 410.945 465.655 414.655 C 466.348 418.366 466.187 418.433 467.773 421.773 C 469.359 425.114 469.604 425.211 472.000 428.018 C 474.396 430.825 474.337 430.985 477.356 433.000 C 480.376 435.015 480.597 434.827 484.077 436.077 C 487.557 437.327 487.581 437.269 491.276 438.000 C 494.971 438.731 494.963 438.750 498.857 439.000 C 502.752 439.250 502.855 439.000 506.853 439.000 C 510.851 439.000 510.851 439.000 514.848 439.000 C 518.846 439.000 518.846 439.000 522.844 439.000 C 526.841 439.000 526.841 439.000 530.839 439.000 C 534.837 439.000 534.837 439.000 538.835 439.000 C 542.832 439.000 542.832 439.000 546.830 439.000 C 550.828 439.000 550.828 439.000 554.826 439.000 C 558.823 439.000 558.823 439.000 562.821 439.000 C 566.819 439.000 566.819 439.000 570.816 439.000 C 574.814 439.000 574.814 439.000 578.812 439.000 C 582.810 439.000 582.810 439.000 586.807 439.000 C 590.805 439.000 590.805 439.000 594.803 439.000 C 598.800 439.000 598.800 439.000 602.798 439.000 C 606.796 439.000 606.796 439.000 610.794 439.000 C 614.791 439.000 614.791 439.000 618.789 439.000 C 622.787 439.000 622.787 439.000 626.784 439.000 C 630.782 439.000 630.782 439.000 634.780 439.000 C 638.778 439.000 638.834 438.864 642.775 439.000 C 646.717 439.136 648.239 437.768 650.545 439.545 C 652.851 441.322 652.185 442.697 652.000 446.109 C 651.815 449.522 651.055 449.715 649.805 453.195 C 648.555 456.675 648.236 456.543 647.000 460.029 C 645.764 463.515 646.111 463.659 644.861 467.139 C 643.611 470.619 643.413 470.536 642.000 473.949 C 640.587 477.362 640.461 477.309 639.211 480.789 C 637.961 484.269 638.236 484.383 637.000 487.869 C 635.764 491.355 635.518 491.252 634.268 494.732 C 633.018 498.212 633.317 498.336 632.000 501.789 C 630.683 505.241 630.375 505.113 629.000 508.541 C 627.625 511.969 627.749 512.021 626.499 515.501 C 625.249 518.981 625.236 518.975 624.000 522.461 C 622.764 525.947 622.806 525.964 621.556 529.444 C 620.306 532.924 620.389 532.959 619.000 536.381 C 617.611 539.803 617.250 539.654 616.000 543.134 C 614.750 546.614 615.250 546.821 614.000 550.301 C 612.750 553.781 612.289 553.590 611.000 557.054 C 609.711 560.517 610.094 560.676 608.844 564.156 C 607.594 567.636 607.236 567.488 606.000 570.973 C 604.764 574.459 605.151 574.619 603.901 578.099 C 602.651 581.579 602.413 581.481 601.000 584.893 C 599.587 588.306 599.500 588.270 598.250 591.750 C 597.000 595.230 597.236 595.327 596.000 598.813 C 594.764 602.299 594.557 602.213 593.307 605.693 C 592.057 609.173 592.327 609.285 591.000 612.733 C 589.673 616.181 589.365 616.053 588.000 619.486 C 586.635 622.918 586.789 622.982 585.539 626.461 C 584.289 629.941 584.236 629.920 583.000 633.405 C 581.764 636.891 581.845 636.925 580.595 640.405 C 579.345 643.885 579.399 643.907 578.000 647.325 C 576.601 650.744 576.293 650.616 575.000 654.078 C 573.707 657.540 574.076 657.693 572.827 661.173 C 571.577 664.653 571.237 664.513 570.002 667.998 C 568.766 671.484 569.134 671.637 567.883 675.117 C 566.633 678.596 566.413 678.505 565.000 681.918 C 563.587 685.330 563.483 685.287 562.233 688.767 C 560.983 692.247 561.236 692.352 560.000 695.837 C 558.764 699.323 558.540 699.230 557.290 702.710 C 556.040 706.190 556.322 706.307 555.000 709.757 C 553.678 713.207 553.370 713.080 552.000 716.510 C 550.630 719.940 550.771 719.999 549.521 723.479 C 548.271 726.959 548.236 726.944 547.000 730.430 C 545.764 733.916 545.828 733.942 544.578 737.422 C 543.328 740.902 543.394 740.930 542.000 744.350 C 540.606 747.770 540.250 747.623 539.000 751.102 C 537.750 754.582 538.250 754.790 537.000 758.270 C 535.750 761.749 535.283 761.556 534.000 765.022 C 532.717 768.488 533.116 768.654 531.866 772.134 C 530.616 775.614 530.236 775.456 529.000 778.942 C 527.764 782.428 528.173 782.597 526.923 786.077 C 525.673 789.557 525.413 789.449 524.000 792.862 C 522.587 796.275 522.522 796.248 521.272 799.728 C 520.022 803.208 520.236 803.296 519.000 806.782 C 517.764 810.268 517.579 810.191 516.329 813.671 C 515.079 817.151 515.332 817.256 514.000 820.702 C 512.668 824.147 512.360 824.020 511.000 827.454 C 509.640 830.889 509.811 830.959 508.561 834.439 C 507.311 837.919 507.236 837.888 506.000 841.374 C 504.764 844.860 504.867 844.903 503.617 848.383 C 502.367 851.863 502.404 851.878 501.000 855.294 C 499.596 858.710 499.288 858.582 498.000 862.047 C 496.712 865.511 497.093 865.669 495.849 869.151 C 494.605 872.634 494.259 872.491 493.024 875.976 C 491.788 879.462 492.161 879.617 490.906 883.094 C 489.650 886.572 489.413 886.474 488.000 889.886 C 486.587 893.299 486.505 893.265 485.255 896.745 C 484.005 900.225 484.236 900.320 483.000 903.806 C 481.764 907.292 481.562 907.208 480.312 910.688 C 479.062 914.168 479.328 914.278 478.000 917.726 C 476.672 921.174 476.364 921.046 475.000 924.479 C 473.636 927.911 473.793 927.977 472.543 931.457 C 471.293 934.937 471.236 934.913 470.000 938.399 C 468.764 941.884 468.850 941.920 467.600 945.400 C 466.350 948.880 466.400 948.901 465.000 952.318 C 463.600 955.736 463.250 955.591 462.000 959.071 C 460.750 962.551 461.248 962.758 460.000 966.238 C 458.752 969.719 458.284 969.525 457.006 972.994 C 455.728 976.462 456.140 976.632 454.888 980.112 C 453.637 983.591 453.236 983.425 452.000 986.911 C 450.764 990.397 451.195 990.575 449.945 994.055 C 448.695 997.535 448.413 997.418 447.000 1000.831 C 445.587 1004.243 445.545 1004.225 444.295 1007.705 C 443.045 1011.185 443.236 1011.265 442.000 1014.750 C 440.764 1018.236 440.601 1018.169 439.351 1021.649 C 438.101 1025.129 438.338 1025.227 437.000 1028.670 C 435.662 1032.114 435.354 1031.986 434.000 1035.423 C 432.646 1038.860 432.833 1038.937 431.583 1042.417 C 430.333 1045.897 430.236 1045.857 429.000 1049.343 C 427.764 1052.829 428.352 1053.196 426.639 1056.361 C 424.927 1059.525 425.169 1060.340 422.152 1062.000 C 419.134 1063.660 418.464 1062.750 414.570 1063.000 C 410.676 1063.250 410.573 1063.000 406.575 1063.000 C 402.577 1063.000 402.577 1063.000 398.579 1063.000 C 394.582 1063.000 394.582 1063.000 390.584 1063.000 C 386.586 1063.000 386.483 1062.750 382.589 1063.000 C 378.694 1063.250 378.798 1063.500 375.007 1064.000 C 371.217 1064.500 371.010 1064.000 367.426 1065.000 C 363.843 1066.000 363.897 1066.132 360.673 1068.000 C 357.449 1069.868 357.198 1069.823 354.530 1072.470 C 351.861 1075.118 351.766 1075.323 350.000 1078.590 C 348.234 1081.856 348.215 1081.848 347.465 1085.535 C 346.715 1089.222 346.881 1089.486 347.000 1093.338 C 347.119 1097.190 347.001 1097.335 347.943 1100.943 C 348.885 1104.550 349.002 1104.502 350.768 1107.768 C 352.534 1111.034 352.388 1111.388 355.007 1114.007 C 357.627 1116.627 357.973 1116.499 361.247 1118.247 C 364.520 1119.995 364.543 1119.941 368.102 1121.000 C 371.661 1122.059 371.692 1121.983 375.483 1122.483 C 379.274 1122.983 379.320 1122.871 383.264 1123.000 C 387.208 1123.129 387.262 1123.000 391.260 1123.000 C 395.257 1123.000 395.257 1123.000 399.255 1123.000 C 403.253 1123.000 403.253 1123.000 407.251 1123.000 C 411.248 1123.000 411.248 1123.000 415.246 1123.000 C 419.244 1123.000 419.244 1123.000 423.241 1123.000 C 427.239 1123.000 427.239 1123.000 431.237 1123.000 C 435.235 1123.000 435.235 1123.000 439.232 1123.000 C 443.230 1123.000 443.230 1123.000 447.228 1123.000 C 451.226 1123.000 451.226 1123.000 455.223 1123.000 C 459.221 1123.000 459.221 1123.000 463.219 1123.000 C 467.216 1123.000 467.216 1123.000 471.214 1123.000 C 475.212 1123.000 475.212 1123.000 479.210 1123.000 C 483.207 1123.000 483.207 1123.000 487.205 1123.000 C 491.203 1123.000 491.203 1123.000 495.200 1123.000 C 499.198 1123.000 499.198 1123.000 503.196 1123.000 C 507.194 1123.000 507.194 1123.000 511.191 1123.000 C 515.189 1123.000 515.189 1123.000 519.187 1123.000 C 523.184 1123.000 523.184 1123.000 527.182 1123.000 C 531.180 1123.000 531.180 1123.000 535.178 1123.000 C 539.175 1123.000 539.175 1123.000 543.173 1123.000 C 547.171 1123.000 547.171 1123.000 551.169 1123.000 C 555.166 1123.000 555.166 1123.000 559.164 1123.000 C 563.162 1123.000 563.162 1123.000 567.159 1123.000 C 571.157 1123.000 571.157 1123.000 575.155 1123.000 C 579.153 1123.000 579.153 1123.000 583.150 1123.000 C 587.148 1123.000 587.305 1123.379 591.146 1123.000 C 594.987 1122.621 594.931 1122.486 598.514 1121.486 C 602.098 1120.486 602.140 1120.589 605.480 1119.000 C 608.819 1117.411 608.991 1117.564 611.872 1115.128 C 614.752 1112.693 614.880 1112.377 617.000 1109.257 C 619.120 1106.138 619.100 1106.130 620.350 1102.650 C 621.600 1099.170 621.588 1099.164 622.000 1095.338 C 622.412 1091.511 622.646 1091.072 622.000 1087.342 C 621.354 1083.612 620.946 1083.781 619.417 1080.417 C 617.888 1077.052 618.254 1076.754 615.884 1073.884 C 613.515 1071.015 613.119 1070.909 609.938 1068.938 C 606.757 1066.967 606.646 1067.234 603.159 1066.000 C 599.673 1064.766 599.679 1064.750 595.992 1064.000 C 592.305 1063.250 592.305 1063.250 588.411 1063.000 C 584.517 1062.750 584.413 1063.000 580.416 1063.000 C 576.418 1063.000 576.418 1063.000 572.420 1063.000 C 568.422 1063.000 568.422 1063.000 564.425 1063.000 C 560.427 1063.000 560.427 1063.000 556.429 1063.000 C 552.432 1063.000 552.432 1063.000 548.434 1063.000 C 544.436 1063.000 544.436 1063.000 540.438 1063.000 C 536.441 1063.000 536.441 1063.000 532.443 1063.000 C 528.445 1063.000 528.445 1063.000 524.448 1063.000 C 520.450 1063.000 520.450 1063.000 516.452 1063.000 C 512.454 1063.000 512.454 1063.000 508.457 1063.000 C 504.459 1063.000 504.459 1063.000 500.461 1063.000 C 496.464 1063.000 495.280 1064.551 492.466 1063.000 C 489.651 1061.449 489.319 1060.057 489.203 1056.797 C 489.086 1053.537 490.764 1053.446 492.000 1049.960 C 493.236 1046.474 492.896 1046.334 494.146 1042.854 C 495.396 1039.374 495.764 1039.526 497.000 1036.040 C 498.236 1032.555 497.840 1032.390 499.090 1028.910 C 500.340 1025.431 500.587 1025.533 502.000 1022.121 C 503.413 1018.708 503.490 1018.740 504.740 1015.260 C 505.990 1011.780 505.764 1011.687 507.000 1008.201 C 508.236 1004.715 508.433 1004.797 509.683 1001.317 C 510.933 997.837 510.671 997.728 512.000 994.281 C 513.329 990.834 513.637 990.961 515.000 987.528 C 516.363 984.095 516.202 984.028 517.452 980.548 C 518.702 977.068 518.764 977.094 520.000 973.608 C 521.236 970.123 521.145 970.085 522.395 966.605 C 523.645 963.125 523.764 963.174 525.000 959.689 C 526.236 956.203 526.088 956.142 527.338 952.662 C 528.588 949.182 528.587 949.181 530.000 945.769 C 531.413 942.356 531.712 942.480 532.989 939.011 C 534.265 935.542 533.871 935.379 535.107 931.893 C 536.343 928.407 536.696 928.554 537.932 925.068 C 539.168 921.582 538.783 921.423 540.050 917.950 C 541.317 914.477 541.763 914.661 543.000 911.176 C 544.237 907.691 543.750 907.489 545.000 904.009 C 546.250 900.529 546.589 900.670 548.000 897.257 C 549.411 893.843 549.394 893.836 550.644 890.356 C 551.894 886.876 551.234 886.603 553.000 883.337 C 554.766 880.071 554.563 878.876 557.708 877.292 C 560.854 875.707 561.616 877.073 565.583 877.000 C 569.551 876.927 569.581 877.000 573.579 877.000 C 577.576 877.000 577.576 877.000 581.574 877.000 C 585.572 877.000 585.572 877.000 589.569 877.000 C 593.567 877.000 593.567 877.000 597.565 877.000 C 601.563 877.000 601.563 877.000 605.560 877.000 C 609.558 877.000 609.558 877.000 613.556 877.000 C 617.553 877.000 617.553 877.000 621.551 877.000 C 625.549 877.000 625.549 877.000 629.547 877.000 C 633.544 877.000 633.544 877.000 637.542 877.000 C 641.540 877.000 641.540 877.000 645.537 877.000 C 649.535 877.000 649.535 877.000 653.533 877.000 C 657.531 877.000 657.531 877.000 661.528 877.000 C 665.526 877.000 665.526 877.000 669.524 877.000 C 673.521 877.000 673.521 877.000 677.519 877.000 C 681.517 877.000 681.517 877.000 685.515 877.000 C 689.512 877.000 689.512 877.000 693.510 877.000 C 697.508 877.000 697.508 877.000 701.506 877.000 C 705.503 877.000 705.503 877.000 709.501 877.000 C 713.499 877.000 713.499 877.000 717.496 877.000 C 721.494 877.000 721.494 877.000 725.492 877.000 C 729.490 877.000 729.490 877.000 733.487 877.000 C 737.485 877.000 737.485 877.000 741.483 877.000 C 745.480 877.000 745.480 877.000 749.478 877.000 C 753.476 877.000 753.476 877.000 757.474 877.000 C 761.471 877.000 761.471 877.000 765.469 877.000 C 769.467 877.000 769.467 877.000 773.464 877.000 C 777.462 877.000 777.462 877.000 781.460 877.000 C 785.458 877.000 785.458 877.000 789.455 877.000 C 793.453 877.000 793.453 877.000 797.451 877.000 C 801.449 877.000 801.449 877.000 805.446 877.000 C 809.444 877.000 809.444 877.000 813.442 877.000 C 817.439 877.000 817.439 877.000 821.437 877.000 C 825.435 877.000 825.435 877.000 829.433 877.000 C 833.430 877.000 833.430 877.000 837.428 877.000 C 841.426 877.000 841.426 877.000 845.423 877.000 C 849.421 877.000 849.421 877.000 853.419 877.000 C 857.417 877.000 857.417 877.000 861.414 877.000 C 865.412 877.000 865.412 877.000 869.410 877.000 C 873.407 877.000 873.407 877.000 877.405 877.000 C 881.403 877.000 881.403 877.000 885.401 877.000 C 889.398 877.000 889.793 876.047 893.396 877.000 C 896.999 877.953 897.661 878.087 899.812 880.812 C 901.963 883.538 900.703 884.441 902.000 887.902 C 903.297 891.362 903.605 891.235 905.000 894.654 C 906.395 898.074 906.331 898.101 907.581 901.581 C 908.831 905.061 908.645 905.138 910.000 908.574 C 911.355 912.011 911.663 911.883 913.000 915.327 C 914.337 918.771 914.099 918.869 915.349 922.349 C 916.599 925.829 916.764 925.761 918.000 929.247 C 919.236 932.733 919.043 932.813 920.293 936.293 C 921.543 939.773 921.587 939.754 923.000 943.167 C 924.413 946.579 924.678 946.469 925.943 949.943 C 927.208 953.417 926.797 953.587 928.061 957.061 C 929.325 960.535 929.587 960.427 931.000 963.839 C 932.413 967.252 932.462 967.232 933.712 970.712 C 934.962 974.191 934.764 974.273 936.000 977.759 C 937.236 981.245 937.405 981.175 938.655 984.655 C 939.905 988.135 939.664 988.235 941.000 991.679 C 942.336 995.123 942.644 994.996 944.000 998.432 C 945.356 1001.868 945.173 1001.943 946.423 1005.423 C 947.673 1008.903 947.606 1008.931 949.000 1012.351 C 950.394 1015.772 950.702 1015.644 952.000 1019.104 C 953.298 1022.564 952.942 1022.712 954.192 1026.192 C 955.442 1029.672 955.764 1029.538 957.000 1033.024 C 958.236 1036.510 957.885 1036.655 959.135 1040.135 C 960.385 1043.615 960.587 1043.531 962.000 1046.944 C 963.413 1050.357 964.011 1050.296 964.786 1053.786 C 965.560 1057.275 966.800 1058.600 965.096 1060.904 C 963.392 1063.207 961.750 1062.476 957.969 1063.000 C 954.189 1063.524 953.972 1063.000 949.974 1063.000 C 945.976 1063.000 945.976 1063.000 941.978 1063.000 C 937.981 1063.000 937.981 1063.000 933.983 1063.000 C 929.985 1063.000 929.985 1063.000 925.988 1063.000 C 921.990 1063.000 921.990 1063.000 917.992 1063.000 C 913.994 1063.000 913.994 1063.000 909.997 1063.000 C 905.999 1063.000 905.999 1063.000 902.001 1063.000 C 898.003 1063.000 898.003 1063.000 894.006 1063.000 C 890.008 1063.000 890.008 1063.000 886.010 1063.000 C 882.013 1063.000 882.013 1063.000 878.015 1063.000 C 874.017 1063.000 873.946 1062.827 870.019 1063.000 C 866.093 1063.173 866.100 1063.190 862.310 1063.690 C 858.519 1064.190 858.489 1064.118 854.857 1065.000 C 851.225 1065.882 851.110 1065.605 847.781 1067.219 C 844.452 1068.834 844.237 1068.870 841.541 1071.459 C 838.846 1074.047 838.885 1074.356 837.000 1077.573 C 835.115 1080.790 835.000 1080.742 834.000 1084.326 C 833.000 1087.909 833.090 1088.079 833.000 1091.907 C 832.910 1095.735 832.888 1095.951 833.638 1099.638 C 834.388 1103.325 834.234 1103.389 836.000 1106.655 C 837.766 1109.921 838.040 1109.954 840.703 1112.703 C 843.365 1115.451 843.511 1115.575 846.649 1117.649 C 849.788 1119.724 849.710 1119.912 853.257 1121.000 C 856.804 1122.088 857.047 1121.500 860.838 1122.000 C 864.629 1122.500 864.525 1122.750 868.419 1123.000 C 872.313 1123.250 872.417 1123.000 876.415 1123.000 C 880.412 1123.000 880.412 1123.000 884.410 1123.000 C 888.408 1123.000 888.408 1123.000 892.406 1123.000 C 896.403 1123.000 896.403 1123.000 900.401 1123.000 C 904.399 1123.000 904.399 1123.000 908.396 1123.000 C 912.394 1123.000 912.394 1123.000 916.392 1123.000 C 920.390 1123.000 920.390 1123.000 924.387 1123.000 C 928.385 1123.000 928.385 1123.000 932.383 1123.000 C 936.380 1123.000 936.380 1123.000 940.378 1123.000 C 944.376 1123.000 944.376 1123.000 948.374 1123.000 C 952.371 1123.000 952.371 1123.000 956.369 1123.000 C 960.367 1123.000 960.367 1123.000 964.364 1123.000 C 968.362 1123.000 968.362 1123.000 972.360 1123.000 C 976.358 1123.000 976.358 1123.000 980.355 1123.000 C 984.353 1123.000 984.353 1123.000 988.351 1123.000 C 992.348 1123.000 992.348 1123.000 996.346 1123.000 C 1000.344 1123.000 1000.344 1123.000 1004.342 1123.000 C 1008.339 1123.000 1008.339 1123.000 1012.337 1123.000 C 1016.335 1123.000 1016.335 1123.000 1020.333 1123.000 C 1024.330 1123.000 1024.330 1123.000 1028.328 1123.000 C 1032.326 1123.000 1032.326 1123.000 1036.323 1123.000 C 1040.321 1123.000 1040.321 1123.000 1044.319 1123.000 C 1048.317 1123.000 1048.317 1123.000 1052.314 1123.000 C 1056.312 1123.000 1056.312 1123.000 1060.310 1123.000 C 1064.307 1123.000 1064.307 1123.000 1068.305 1123.000 C 1072.303 1123.000 1072.406 1123.250 1076.301 1123.000 C 1080.195 1122.750 1080.198 1122.759 1083.882 1122.000 C 1087.565 1121.241 1087.658 1121.465 1091.035 1119.965 C 1094.411 1118.465 1094.518 1118.370 1097.387 1116.000 C 1100.257 1113.630 1100.349 1113.498 1102.513 1110.487 C 1104.678 1107.475 1104.674 1107.384 1106.046 1103.954 C 1107.417 1100.525 1107.511 1100.564 1108.000 1096.768 C 1108.489 1092.973 1108.500 1092.564 1108.000 1088.773 C 1107.500 1084.982 1107.276 1085.075 1106.000 1081.606 C 1104.724 1078.137 1105.159 1077.810 1102.896 1074.896 C 1100.634 1071.982 1100.026 1072.174 1096.950 1069.950 C 1093.873 1067.726 1093.972 1067.487 1090.590 1066.000 C 1087.209 1064.513 1087.110 1064.750 1083.423 1064.000 C 1079.736 1063.250 1079.736 1063.250 1075.842 1063.000 C 1071.948 1062.750 1071.844 1063.000 1067.847 1063.000 C 1063.849 1063.000 1063.849 1063.000 1059.851 1063.000 C 1055.853 1063.000 1055.853 1063.000 1051.856 1063.000 C 1047.858 1063.000 1047.858 1063.000 1043.860 1063.000 C 1039.862 1063.000 1039.330 1063.972 1035.865 1063.000 C 1032.400 1062.028 1032.216 1061.772 1030.000 1059.112 C 1027.784 1056.452 1028.393 1055.780 1027.000 1052.359 C 1025.607 1048.938 1025.679 1048.909 1024.429 1045.429 C 1023.179 1041.949 1023.357 1041.875 1022.000 1038.439 C 1020.643 1035.004 1020.335 1035.131 1019.000 1031.687 C 1017.665 1028.242 1017.910 1028.140 1016.660 1024.660 C 1015.410 1021.180 1015.413 1021.179 1014.000 1017.767 C 1012.587 1014.354 1012.287 1014.479 1011.010 1011.010 C 1009.733 1007.541 1010.128 1007.378 1008.892 1003.892 C 1007.656 1000.406 1007.479 1000.479 1006.067 997.067 C 1004.654 993.654 1004.508 993.714 1003.241 990.241 C 1001.975 986.768 1002.236 986.660 1001.000 983.174 C 999.764 979.689 999.548 979.778 998.298 976.298 C 997.048 972.818 997.325 972.704 996.000 969.255 C 994.675 965.805 994.368 965.933 993.000 962.502 C 991.632 959.071 991.780 959.010 990.530 955.530 C 989.280 952.050 989.382 952.007 988.000 948.582 C 986.618 945.157 986.310 945.284 985.000 941.829 C 983.690 938.374 984.011 938.241 982.761 934.761 C 981.511 931.281 981.413 931.322 980.000 927.909 C 978.587 924.497 978.363 924.590 977.111 921.111 C 975.859 917.631 976.228 917.478 974.993 913.993 C 973.757 910.507 973.416 910.648 972.167 907.167 C 970.919 903.687 971.292 903.532 970.000 900.070 C 968.708 896.607 968.400 896.735 967.000 893.317 C 965.600 889.899 965.649 889.879 964.399 886.399 C 963.149 882.919 963.350 882.836 962.000 879.397 C 960.650 875.958 960.342 876.086 959.000 872.644 C 957.658 869.203 957.880 869.110 956.630 865.630 C 955.380 862.150 955.408 862.139 954.000 858.724 C 952.592 855.310 952.285 855.437 951.000 851.972 C 949.715 848.506 950.112 848.342 948.862 844.862 C 947.612 841.382 947.413 841.464 946.000 838.052 C 944.587 834.639 944.461 834.691 943.211 831.211 C 941.961 827.732 942.236 827.618 941.000 824.132 C 939.764 820.646 939.518 820.748 938.268 817.268 C 937.018 813.788 937.317 813.664 936.000 810.212 C 934.683 806.760 934.375 806.888 933.000 803.459 C 931.625 800.031 931.750 799.980 930.500 796.500 C 929.250 793.020 929.375 792.968 928.000 789.540 C 926.625 786.111 926.317 786.239 925.000 782.787 C 923.683 779.335 923.981 779.211 922.731 775.731 C 921.481 772.251 921.413 772.280 920.000 768.867 C 918.587 765.454 918.340 765.557 917.081 762.081 C 915.821 758.605 916.199 758.449 914.963 754.963 C 913.727 751.477 913.550 751.550 912.138 748.138 C 910.725 744.725 910.597 744.778 909.312 741.312 C 908.028 737.847 908.236 737.760 907.000 734.275 C 905.764 730.789 905.619 730.849 904.369 727.369 C 903.119 723.889 903.342 723.797 902.000 720.355 C 900.658 716.913 900.350 717.041 899.000 713.602 C 897.650 710.163 897.851 710.080 896.601 706.601 C 895.351 703.121 895.400 703.100 894.000 699.682 C 892.600 696.264 892.292 696.392 891.000 692.929 C 889.708 689.467 890.082 689.312 888.832 685.832 C 887.582 682.352 887.413 682.422 886.000 679.010 C 884.587 675.597 884.432 675.662 883.182 672.182 C 881.932 668.702 882.236 668.576 881.000 665.090 C 879.764 661.604 879.488 661.718 878.238 658.238 C 876.988 654.758 877.310 654.625 876.000 651.170 C 874.690 647.715 874.383 647.842 873.000 644.417 C 871.617 640.992 871.720 640.950 870.470 637.470 C 869.220 633.990 869.367 633.929 868.000 630.497 C 866.633 627.066 866.325 627.194 865.000 623.745 C 863.675 620.296 863.951 620.181 862.701 616.701 C 861.451 613.221 861.413 613.237 860.000 609.825 C 858.587 606.412 858.318 606.524 857.051 603.051 C 855.784 599.578 856.196 599.407 854.933 595.933 C 853.670 592.458 853.413 592.565 852.000 589.152 C 850.587 585.740 850.532 585.762 849.282 582.282 C 848.032 578.802 848.236 578.718 847.000 575.232 C 845.764 571.747 845.589 571.819 844.339 568.339 C 843.089 564.859 843.335 564.757 842.000 561.313 C 840.665 557.868 840.357 557.995 839.000 554.560 C 837.643 551.124 837.821 551.051 836.571 547.571 C 835.321 544.091 835.393 544.061 834.000 540.640 C 832.607 537.219 832.299 537.347 831.000 533.887 C 829.701 530.428 830.052 530.282 828.802 526.802 C 827.552 523.322 827.413 523.380 826.000 519.967 C 824.587 516.555 824.402 516.632 823.152 513.152 C 821.902 509.672 822.288 509.512 821.000 506.048 C 819.712 502.583 819.404 502.711 818.000 499.295 C 816.596 495.879 816.633 495.863 815.383 492.383 C 814.133 488.903 814.236 488.861 813.000 485.375 C 811.764 481.889 811.690 481.920 810.440 478.440 C 809.190 474.960 809.360 474.890 808.000 471.455 C 806.640 468.021 806.332 468.148 805.000 464.702 C 803.668 461.256 803.921 461.151 802.671 457.671 C 801.421 454.191 801.413 454.195 800.000 450.783 C 798.587 447.370 798.295 447.491 797.021 444.021 C 795.747 440.551 796.158 440.381 794.903 436.903 C 793.648 433.425 793.413 433.523 792.000 430.110 C 790.587 426.697 790.503 426.732 789.253 423.253 C 788.003 419.773 788.236 419.676 787.000 416.190 C 785.764 412.704 785.688 412.736 784.309 409.309 C 782.930 405.883 782.811 405.932 781.484 402.484 C 780.157 399.036 780.236 399.003 779.000 395.518 C 777.764 392.032 777.862 391.991 776.541 388.541 C 775.220 385.090 776.139 384.101 773.716 381.716 C 771.292 379.330 770.561 379.679 766.845 379.000 C 763.128 378.321 762.847 379.000 758.849 379.000 C 754.852 379.000 754.852 379.000 750.854 379.000 C 746.856 379.000 746.856 379.000 742.859 379.000 C 738.861 379.000 738.861 379.000 734.863 379.000 C 730.865 379.000 730.865 379.000 726.868 379.000 C 722.870 379.000 722.870 379.000 718.872 379.000 C 714.875 379.000 714.875 379.000 710.877 379.000 C 706.879 379.000 706.879 379.000 702.881 379.000 C 698.884 379.000 698.884 379.000 694.886 379.000 C 690.888 379.000 690.888 379.000 686.891 379.000 C 682.893 379.000 682.893 379.000 678.895 379.000 C 674.897 379.000 674.897 379.000 670.900 379.000 C 666.902 379.000 666.902 379.000 662.904 379.000 C 658.906 379.000 658.906 379.000 654.909 379.000 C 650.911 379.000 650.911 379.000 646.913 379.000 C 642.916 379.000 642.916 379.000 638.918 379.000 C 634.920 379.000 634.920 379.000 630.922 379.000 C 626.925 379.000 626.925 379.000 622.927 379.000 C 618.929 379.000 618.929 379.000 614.932 379.000 C 610.934 379.000 610.934 379.000 606.936 379.000 C 602.938 379.000 602.938 379.000 598.941 379.000 C 594.943 379.000 594.943 379.000 590.945 379.000 C 586.948 379.000 586.948 379.000 582.950 379.000 C 578.952 379.000 578.952 379.000 574.954 379.000 C 570.957 379.000 570.957 379.000 566.959 379.000 C 562.961 379.000 562.961 379.000 558.964 379.000 C 554.966 379.000 554.966 379.000 550.968 379.000 C 546.970 379.000 546.970 379.000 542.973 379.000 C 538.975 379.000 538.975 379.000 534.977 379.000 C 530.979 379.000 530.979 379.000 526.982 379.000 C 522.984 379.000 522.984 379.000 518.986 379.000 C 514.989 379.000 514.989 379.000 510.991 379.000 C 506.993 379.000 506.993 379.000 502.995 379.000 C 498.998 379.000 498.791 378.500 495.000 379.000 Z M 719.000 440.000 C 721.949 438.193 723.067 438.423 726.567 439.000 C 730.067 439.577 730.642 439.795 733.000 442.306 C 735.358 444.818 734.715 445.587 736.000 449.045 C 737.285 452.504 736.890 452.667 738.140 456.140 C 739.390 459.613 739.592 459.530 741.000 462.937 C 742.408 466.345 742.521 466.298 743.771 469.771 C 745.021 473.244 744.693 473.380 746.000 476.829 C 747.307 480.279 747.622 480.148 749.000 483.568 C 750.378 486.989 750.260 487.037 751.510 490.510 C 752.760 493.983 752.628 494.038 754.000 497.461 C 755.372 500.883 755.688 500.752 757.000 504.199 C 758.312 507.647 757.999 507.776 759.249 511.249 C 760.499 514.722 760.592 514.684 762.000 518.092 C 763.408 521.499 763.630 521.407 764.880 524.880 C 766.130 528.353 765.720 528.523 767.000 531.984 C 768.280 535.444 768.595 535.314 770.000 538.723 C 771.405 542.132 771.369 542.146 772.619 545.619 C 773.869 549.092 773.655 549.181 775.000 552.615 C 776.345 556.048 776.660 555.918 778.000 559.354 C 779.340 562.790 779.108 562.885 780.358 566.358 C 781.608 569.831 781.592 569.838 783.000 573.246 C 784.408 576.654 784.715 576.526 785.989 579.989 C 787.264 583.452 786.867 583.617 788.098 587.098 C 789.328 590.578 789.682 590.432 790.913 593.913 C 792.144 597.394 791.749 597.557 793.021 601.021 C 794.293 604.485 794.592 604.361 796.000 607.769 C 797.408 611.177 797.402 611.179 798.652 614.652 C 799.902 618.125 799.663 618.224 801.000 621.661 C 802.337 625.098 802.652 624.968 804.000 628.400 C 805.348 631.833 805.141 631.918 806.391 635.391 C 807.641 638.864 807.598 638.882 809.000 642.292 C 810.402 645.702 810.717 645.572 812.000 649.031 C 813.283 652.491 812.880 652.657 814.130 656.130 C 815.380 659.603 815.592 659.516 817.000 662.923 C 818.408 666.331 818.511 666.288 819.761 669.761 C 821.011 673.234 820.690 673.367 822.000 676.815 C 823.310 680.264 823.625 680.133 825.000 683.554 C 826.375 686.975 826.250 687.027 827.500 690.500 C 828.750 693.973 828.625 694.025 830.000 697.446 C 831.375 700.868 831.690 700.737 833.000 704.185 C 834.310 707.634 833.989 707.766 835.239 711.239 C 836.489 714.712 836.592 714.670 838.000 718.077 C 839.408 721.485 839.620 721.397 840.870 724.870 C 842.120 728.343 841.718 728.510 843.000 731.970 C 844.282 735.429 844.598 735.299 846.000 738.708 C 847.402 742.118 847.359 742.136 848.609 745.609 C 849.859 749.082 849.769 749.120 851.000 752.601 C 852.231 756.082 852.196 756.096 853.533 759.533 C 854.870 762.970 854.982 762.924 856.348 766.348 C 857.715 769.773 857.769 769.751 859.000 773.232 C 860.231 776.713 860.022 776.799 861.272 780.272 C 862.522 783.745 862.592 783.716 864.000 787.124 C 865.408 790.531 865.650 790.431 866.903 793.903 C 868.156 797.375 867.737 797.548 869.011 801.011 C 870.285 804.474 871.060 804.201 872.000 807.755 C 872.940 811.309 874.391 812.917 872.772 815.228 C 871.153 817.539 869.332 816.557 865.525 817.000 C 861.717 817.443 861.534 817.000 857.543 817.000 C 853.552 817.000 853.552 817.000 849.561 817.000 C 845.571 817.000 845.571 817.000 841.580 817.000 C 837.589 817.000 837.589 817.000 833.598 817.000 C 829.607 817.000 829.607 817.000 825.617 817.000 C 821.626 817.000 821.626 817.000 817.635 817.000 C 813.644 817.000 813.644 817.000 809.654 817.000 C 805.663 817.000 805.663 817.000 801.672 817.000 C 797.681 817.000 797.681 817.000 793.690 817.000 C 789.700 817.000 789.700 817.000 785.709 817.000 C 781.718 817.000 781.718 817.000 777.727 817.000 C 773.736 817.000 773.736 817.000 769.746 817.000 C 765.755 817.000 765.755 817.000 761.764 817.000 C 757.773 817.000 757.773 817.000 753.782 817.000 C 749.792 817.000 749.792 817.000 745.801 817.000 C 741.810 817.000 741.810 817.000 737.819 817.000 C 733.828 817.000 733.828 817.000 729.838 817.000 C 725.847 817.000 725.847 817.000 721.856 817.000 C 717.865 817.000 717.865 817.000 713.874 817.000 C 709.884 817.000 709.884 817.000 705.893 817.000 C 701.902 817.000 701.902 817.000 697.911 817.000 C 693.920 817.000 693.920 817.000 689.930 817.000 C 685.939 817.000 685.939 817.000 681.948 817.000 C 677.957 817.000 677.957 817.000 673.967 817.000 C 669.976 817.000 669.976 817.000 665.985 817.000 C 661.994 817.000 661.994 817.000 658.003 817.000 C 654.013 817.000 654.013 817.000 650.022 817.000 C 646.031 817.000 646.031 817.000 642.040 817.000 C 638.049 817.000 638.049 817.000 634.059 817.000 C 630.068 817.000 630.068 817.000 626.077 817.000 C 622.086 817.000 622.086 817.000 618.095 817.000 C 614.105 817.000 614.105 817.000 610.114 817.000 C 606.123 817.000 606.123 817.000 602.132 817.000 C 598.141 817.000 598.141 817.000 594.151 817.000 C 590.160 817.000 589.707 817.892 586.169 817.000 C 582.631 816.108 581.042 816.111 580.000 813.430 C 578.958 810.749 580.845 809.789 582.000 806.277 C 583.155 802.765 583.370 802.853 584.620 799.380 C 585.870 795.907 585.655 795.818 587.000 792.385 C 588.345 788.951 588.660 789.082 590.000 785.646 C 591.340 782.210 591.109 782.114 592.359 778.641 C 593.609 775.168 593.769 775.235 595.000 771.754 C 596.231 768.273 596.032 768.191 597.282 764.718 C 598.532 761.245 598.592 761.269 600.000 757.862 C 601.408 754.454 601.663 754.560 602.913 751.087 C 604.163 747.614 603.769 747.450 605.000 743.970 C 606.231 740.489 606.587 740.636 607.837 737.163 C 609.087 733.690 608.769 733.558 610.000 730.077 C 611.231 726.597 611.511 726.712 612.761 723.239 C 614.011 719.766 613.690 719.634 615.000 716.185 C 616.310 712.737 616.625 712.868 618.000 709.446 C 619.375 706.025 619.250 705.973 620.500 702.500 C 621.750 699.027 621.769 699.035 623.000 695.554 C 624.231 692.073 624.173 692.050 625.423 688.577 C 626.673 685.103 626.769 685.143 628.000 681.662 C 629.231 678.181 629.097 678.126 630.347 674.653 C 631.597 671.180 631.592 671.178 633.000 667.770 C 634.408 664.362 634.706 664.486 635.978 661.022 C 637.250 657.558 636.855 657.395 638.086 653.914 C 639.317 650.433 639.671 650.579 640.902 647.098 C 642.133 643.617 641.735 643.453 643.010 639.990 C 644.285 636.527 644.592 636.655 646.000 633.247 C 647.408 629.839 647.391 629.832 648.641 626.359 C 649.891 622.886 649.769 622.836 651.000 619.355 C 652.231 615.874 652.315 615.908 653.565 612.435 C 654.815 608.962 654.769 608.944 656.000 605.463 C 657.231 601.982 657.238 601.985 658.488 598.512 C 659.738 595.039 659.622 594.991 661.000 591.571 C 662.378 588.151 662.693 588.281 664.000 584.832 C 665.307 581.382 664.977 581.246 666.227 577.773 C 667.477 574.300 667.769 574.420 669.000 570.940 C 670.231 567.459 669.901 567.322 671.151 563.849 C 672.401 560.376 672.592 560.455 674.000 557.047 C 675.408 553.640 675.532 553.691 676.782 550.218 C 678.032 546.745 677.769 546.636 679.000 543.155 C 680.231 539.674 680.456 539.767 681.706 536.294 C 682.956 532.821 682.769 532.744 684.000 529.263 C 685.231 525.782 685.379 525.844 686.629 522.371 C 687.879 518.898 687.657 518.806 689.000 515.371 C 690.343 511.936 690.658 512.067 692.000 508.632 C 693.342 505.197 693.118 505.105 694.368 501.632 C 695.618 498.159 695.769 498.221 697.000 494.740 C 698.231 491.259 698.042 491.181 699.292 487.708 C 700.542 484.235 700.592 484.256 702.000 480.848 C 703.408 477.440 703.673 477.550 704.923 474.077 C 706.173 470.604 705.769 470.437 707.000 466.956 C 708.231 463.475 708.597 463.626 709.847 460.153 C 711.097 456.680 710.769 456.545 712.000 453.064 C 713.231 449.583 713.020 449.496 714.770 446.230 C 716.520 442.964 716.051 441.807 719.000 440.000 Z"/>
  </g>
</svg>
