<?xml version="1.0" encoding="UTF-8"?>
<svg xmlns="http://www.w3.org/2000/svg" width="2000.00" height="1414.00"
      viewBox="0 0 2000.00 1414.00" preserveAspectRatio="xMidYMid meet">
  <g fill="#000" stroke="none" fill-rule="evenodd">
    <path d="M 1041.000 314.000 C 1037.107 314.250 1037.314 314.750 1033.421 315.000 C 1029.528 315.250 1029.321 314.750 1025.428 315.000 C 1021.535 315.250 1021.742 315.750 1017.849 316.000 C 1013.956 316.250 1013.852 316.000 1009.856 316.000 C 1005.859 316.000 1005.755 315.750 1001.862 316.000 C 997.969 316.250 998.176 316.750 994.283 317.000 C 990.390 317.250 990.235 316.876 986.290 317.000 C 982.345 317.124 982.396 317.247 978.503 317.497 C 974.610 317.747 974.663 317.874 970.718 318.000 C 966.773 318.126 966.618 317.750 962.725 318.000 C 958.832 318.250 958.827 318.245 955.146 319.000 C 951.465 319.755 950.496 318.810 948.000 321.019 C 945.504 323.228 946.413 324.358 945.163 327.837 C 943.913 331.316 944.235 331.449 943.000 334.934 C 941.765 338.419 941.473 338.298 940.223 341.777 C 938.973 345.256 939.306 345.394 938.000 348.850 C 936.694 352.305 936.385 352.177 935.000 355.600 C 933.615 359.023 933.709 359.062 932.459 362.541 C 931.209 366.020 931.235 366.031 930.000 369.516 C 928.765 373.001 928.769 373.002 927.519 376.481 C 926.269 379.960 926.380 380.006 925.000 383.431 C 923.620 386.856 923.311 386.728 922.000 390.182 C 920.689 393.635 921.005 393.766 919.755 397.245 C 918.505 400.724 918.235 400.612 917.000 404.097 C 915.765 407.582 916.065 407.706 914.815 411.185 C 913.565 414.664 913.412 414.600 912.000 418.012 C 910.588 421.424 910.418 421.353 909.168 424.832 C 907.918 428.311 908.235 428.443 907.000 431.928 C 905.765 435.413 905.478 435.294 904.228 438.772 C 902.978 442.251 903.307 442.388 902.000 445.843 C 900.693 449.298 900.250 449.115 899.000 452.593 C 897.750 456.072 898.250 456.279 897.000 459.758 C 895.750 463.237 895.369 463.079 894.000 466.509 C 892.631 469.938 892.774 469.997 891.524 473.476 C 890.274 476.955 890.235 476.939 889.000 480.424 C 887.765 483.909 887.834 483.938 886.584 487.416 C 885.334 490.895 885.396 490.921 884.000 494.340 C 882.604 497.758 882.295 497.630 881.000 501.090 C 879.705 504.550 880.070 504.701 878.820 508.180 C 877.570 511.659 877.235 511.520 876.000 515.005 C 874.765 518.490 875.130 518.642 873.880 522.120 C 872.630 525.599 872.412 525.509 871.000 528.921 C 869.588 532.333 869.482 532.289 868.232 535.768 C 866.982 539.246 867.235 539.351 866.000 542.836 C 864.765 546.321 864.542 546.229 863.292 549.708 C 862.042 553.187 862.323 553.303 861.000 556.751 C 859.677 560.200 859.368 560.072 858.000 563.502 C 856.632 566.932 856.778 566.993 855.528 570.472 C 854.278 573.950 854.235 573.932 853.000 577.417 C 851.765 580.902 851.838 580.933 850.588 584.412 C 849.338 587.891 849.397 587.915 848.000 591.333 C 846.603 594.751 846.294 594.623 845.000 598.083 C 843.706 601.544 844.074 601.697 842.825 605.175 C 841.575 608.654 841.236 608.514 840.001 611.999 C 838.766 615.484 839.135 615.637 837.884 619.116 C 836.634 622.594 836.412 622.502 835.000 625.914 C 833.588 629.326 833.487 629.284 832.237 632.763 C 830.987 636.242 831.235 636.344 830.000 639.829 C 828.765 643.314 828.547 643.224 827.297 646.703 C 826.047 650.182 826.324 650.297 825.000 653.745 C 823.676 657.193 823.250 657.016 822.000 660.495 C 820.750 663.974 821.250 664.181 820.000 667.660 C 818.750 671.139 818.352 670.974 817.000 674.411 C 815.648 677.847 815.843 677.928 814.593 681.407 C 813.343 684.886 813.235 684.841 812.000 688.326 C 810.765 691.811 810.903 691.868 809.653 695.347 C 808.403 698.826 808.412 698.830 807.000 702.241 C 805.588 705.653 805.283 705.527 804.006 708.994 C 802.728 712.462 803.124 712.626 801.889 716.111 C 800.654 719.596 800.301 719.449 799.066 722.934 C 797.831 726.419 798.215 726.579 796.949 730.051 C 795.683 733.523 795.412 733.411 794.000 736.823 C 792.588 740.234 792.552 740.219 791.302 743.698 C 790.052 747.177 790.235 747.253 789.000 750.738 C 787.765 754.223 787.612 754.159 786.362 757.638 C 785.112 761.117 785.340 761.212 784.000 764.653 C 782.660 768.095 782.351 767.967 781.000 771.404 C 779.649 774.841 779.848 774.923 778.598 778.402 C 777.348 781.881 777.235 781.834 776.000 785.319 C 774.765 788.804 774.908 788.863 773.658 792.342 C 772.408 795.821 772.412 795.823 771.000 799.235 C 769.588 802.646 769.287 802.522 768.011 805.989 C 766.734 809.457 767.129 809.621 765.894 813.106 C 764.659 816.591 764.305 816.445 763.070 819.930 C 761.835 823.415 762.221 823.575 760.954 827.046 C 759.686 830.518 759.412 830.404 758.000 833.816 C 756.588 837.228 756.557 837.215 755.307 840.693 C 754.057 844.172 754.235 844.246 753.000 847.731 C 751.765 851.216 751.616 851.155 750.366 854.634 C 749.116 858.112 749.342 858.206 748.000 861.647 C 746.658 865.087 746.250 864.918 745.000 868.397 C 743.750 871.876 744.250 872.083 743.000 875.562 C 741.750 879.041 741.334 878.869 740.000 882.312 C 738.666 885.756 738.913 885.859 737.663 889.337 C 736.413 892.816 736.235 892.743 735.000 896.228 C 733.765 899.713 733.972 899.799 732.722 903.278 C 731.472 906.756 731.412 906.731 730.000 910.143 C 728.588 913.555 728.336 913.450 727.075 916.925 C 725.815 920.399 726.194 920.556 724.959 924.041 C 723.724 927.526 723.375 927.382 722.135 930.865 C 720.895 934.348 721.284 934.509 720.000 937.974 C 718.716 941.439 718.407 941.311 717.000 944.724 C 715.593 948.138 715.621 948.150 714.371 951.629 C 713.121 955.108 713.235 955.155 712.000 958.640 C 710.765 962.125 710.681 962.090 709.431 965.569 C 708.181 969.048 708.589 969.216 707.000 972.555 C 705.411 975.894 705.737 976.562 703.077 978.923 C 700.416 981.284 699.829 980.731 696.358 982.000 C 692.887 983.269 692.851 983.182 689.193 984.000 C 685.536 984.818 685.413 984.523 681.727 985.273 C 678.041 986.023 678.060 986.068 674.449 987.000 C 670.839 987.932 670.876 988.021 667.285 989.000 C 663.693 989.979 663.771 990.165 660.085 990.915 C 656.399 991.665 656.218 991.229 652.541 992.000 C 648.864 992.771 648.974 993.037 645.376 994.000 C 641.778 994.963 641.808 995.036 638.149 995.851 C 634.490 996.666 634.410 996.473 630.740 997.260 C 627.070 998.047 626.953 997.765 623.468 999.000 C 619.983 1000.235 618.667 999.485 616.800 1002.200 C 614.933 1004.916 616.200 1005.948 616.000 1009.862 C 615.800 1013.776 616.000 1013.859 616.000 1017.855 C 616.000 1021.852 616.000 1021.852 616.000 1025.848 C 616.000 1029.845 616.000 1029.845 616.000 1033.842 C 616.000 1037.838 616.000 1037.838 616.000 1041.835 C 616.000 1045.831 616.000 1045.831 616.000 1049.828 C 616.000 1053.825 615.253 1054.278 616.000 1057.821 C 616.747 1061.364 616.241 1062.455 618.986 1064.000 C 621.731 1065.545 622.983 1064.000 626.979 1064.000 C 630.976 1064.000 630.976 1064.000 634.972 1064.000 C 638.969 1064.000 638.969 1064.000 642.966 1064.000 C 646.962 1064.000 646.962 1064.000 650.959 1064.000 C 654.955 1064.000 654.955 1064.000 658.952 1064.000 C 662.949 1064.000 662.949 1064.000 666.945 1064.000 C 670.942 1064.000 670.942 1064.000 674.939 1064.000 C 678.935 1064.000 678.935 1064.000 682.932 1064.000 C 686.928 1064.000 686.928 1064.000 690.925 1064.000 C 694.922 1064.000 694.922 1064.000 698.918 1064.000 C 702.915 1064.000 702.915 1064.000 706.911 1064.000 C 710.908 1064.000 710.908 1064.000 714.905 1064.000 C 718.901 1064.000 718.901 1064.000 722.898 1064.000 C 726.894 1064.000 726.894 1064.000 730.891 1064.000 C 734.888 1064.000 734.888 1064.000 738.884 1064.000 C 742.881 1064.000 742.881 1064.000 746.877 1064.000 C 750.874 1064.000 750.874 1064.000 754.871 1064.000 C 758.867 1064.000 758.867 1064.000 762.864 1064.000 C 766.860 1064.000 766.860 1064.000 770.857 1064.000 C 774.854 1064.000 774.854 1064.000 778.850 1064.000 C 782.847 1064.000 782.847 1064.000 786.843 1064.000 C 790.840 1064.000 790.840 1064.000 794.837 1064.000 C 798.833 1064.000 798.833 1064.000 802.830 1064.000 C 806.826 1064.000 806.826 1064.000 810.823 1064.000 C 814.820 1064.000 814.820 1064.000 818.816 1064.000 C 822.813 1064.000 822.813 1064.000 826.809 1064.000 C 830.806 1064.000 830.806 1064.000 834.803 1064.000 C 838.799 1064.000 838.799 1064.000 842.796 1064.000 C 846.792 1064.000 846.792 1064.000 850.789 1064.000 C 854.786 1064.000 854.786 1064.000 858.782 1064.000 C 862.779 1064.000 862.779 1064.000 866.775 1064.000 C 870.772 1064.000 870.772 1064.000 874.769 1064.000 C 878.765 1064.000 878.765 1064.000 882.762 1064.000 C 886.759 1064.000 886.759 1064.000 890.755 1064.000 C 894.752 1064.000 894.752 1064.000 898.748 1064.000 C 902.745 1064.000 903.929 1065.477 906.742 1064.000 C 909.554 1062.523 909.185 1061.569 910.000 1058.094 C 910.815 1054.619 910.000 1054.097 910.000 1050.100 C 910.000 1046.104 910.000 1046.104 910.000 1042.107 C 910.000 1038.111 910.000 1038.111 910.000 1034.114 C 910.000 1030.117 910.000 1030.117 910.000 1026.121 C 910.000 1022.124 910.000 1022.124 910.000 1018.128 C 910.000 1014.131 910.000 1014.131 910.000 1010.134 C 910.000 1006.138 911.681 1004.856 910.000 1002.141 C 908.319 999.427 906.823 1000.312 903.276 999.276 C 899.729 998.241 899.516 998.705 895.812 998.000 C 892.107 997.295 892.143 997.207 888.457 996.457 C 884.771 995.707 884.706 995.864 881.068 995.000 C 877.429 994.136 877.589 993.750 873.903 993.000 C 870.217 992.250 870.022 992.722 866.324 992.000 C 862.627 991.278 862.799 990.863 859.113 990.113 C 855.427 989.363 855.285 989.705 851.580 989.000 C 847.876 988.295 847.980 988.044 844.294 987.294 C 840.608 986.544 840.541 986.705 836.837 986.000 C 833.132 985.295 833.161 985.225 829.475 984.475 C 825.789 983.725 825.730 983.869 822.093 983.000 C 818.456 982.131 817.701 982.956 814.928 981.000 C 812.155 979.044 811.307 978.352 811.000 975.177 C 810.693 972.003 812.448 971.781 813.698 968.302 C 814.948 964.823 814.765 964.747 816.000 961.262 C 817.235 957.777 817.388 957.841 818.638 954.362 C 819.888 950.883 819.765 950.832 821.000 947.347 C 822.235 943.862 822.328 943.900 823.578 940.422 C 824.828 936.943 824.765 936.916 826.000 933.431 C 827.235 929.946 827.269 929.960 828.519 926.481 C 829.769 923.003 829.880 923.049 831.000 919.516 C 832.120 915.984 831.750 915.830 833.000 912.351 C 834.250 908.872 834.750 909.080 836.000 905.601 C 837.250 902.122 836.750 901.915 838.000 898.436 C 839.250 894.957 839.750 895.164 841.000 891.685 C 842.250 888.207 841.886 888.056 843.000 884.521 C 844.114 880.985 844.206 881.023 845.456 877.544 C 846.706 874.066 846.614 874.028 848.000 870.605 C 849.386 867.183 848.672 866.256 851.000 863.855 C 853.328 861.453 853.734 861.714 857.310 861.000 C 860.886 860.286 861.307 861.000 865.303 861.000 C 869.300 861.000 869.300 861.000 873.297 861.000 C 877.293 861.000 877.293 861.000 881.290 861.000 C 885.286 861.000 885.286 861.000 889.283 861.000 C 893.280 861.000 893.280 861.000 897.276 861.000 C 901.273 861.000 901.273 861.000 905.269 861.000 C 909.266 861.000 909.266 861.000 913.263 861.000 C 917.259 861.000 917.259 861.000 921.256 861.000 C 925.252 861.000 925.252 861.000 929.249 861.000 C 933.246 861.000 933.246 861.000 937.242 861.000 C 941.239 861.000 941.239 861.000 945.235 861.000 C 949.232 861.000 949.232 861.000 953.229 861.000 C 957.225 861.000 957.225 861.000 961.222 861.000 C 965.218 861.000 965.218 861.000 969.215 861.000 C 973.212 861.000 973.212 861.000 977.208 861.000 C 981.205 861.000 981.205 861.000 985.201 861.000 C 989.198 861.000 989.198 861.000 993.195 861.000 C 997.191 861.000 997.191 861.000 1001.188 861.000 C 1005.184 861.000 1005.184 861.000 1009.181 861.000 C 1013.178 861.000 1013.178 861.000 1017.174 861.000 C 1021.171 861.000 1021.171 861.000 1025.167 861.000 C 1029.164 861.000 1029.164 861.000 1033.161 861.000 C 1037.157 861.000 1037.157 861.000 1041.154 861.000 C 1045.151 861.000 1045.151 861.000 1049.147 861.000 C 1053.144 861.000 1053.144 861.000 1057.140 861.000 C 1061.137 861.000 1061.137 861.000 1065.134 861.000 C 1069.130 861.000 1069.130 861.000 1073.127 861.000 C 1077.123 861.000 1077.123 861.000 1081.120 861.000 C 1085.117 861.000 1085.117 861.000 1089.113 861.000 C 1093.110 861.000 1093.110 861.000 1097.106 861.000 C 1101.103 861.000 1101.103 861.000 1105.100 861.000 C 1109.096 861.000 1109.096 861.000 1113.093 861.000 C 1117.089 861.000 1117.095 860.986 1121.086 861.000 C 1125.077 861.014 1125.931 859.659 1129.056 861.056 C 1132.181 862.453 1131.851 863.456 1133.587 866.587 C 1135.323 869.718 1134.897 870.041 1136.000 873.580 C 1137.103 877.120 1136.750 877.266 1138.000 880.745 C 1139.250 884.224 1139.750 884.017 1141.000 887.496 C 1142.250 890.975 1141.854 891.138 1143.000 894.660 C 1144.146 898.182 1144.334 898.105 1145.584 901.584 C 1146.834 905.062 1146.896 905.037 1148.000 908.576 C 1149.104 912.115 1148.840 912.224 1150.000 915.741 C 1151.160 919.257 1151.390 919.161 1152.640 922.640 C 1153.890 926.119 1153.765 926.171 1155.000 929.656 C 1156.235 933.141 1156.330 933.101 1157.580 936.580 C 1158.830 940.059 1158.895 940.032 1160.000 943.571 C 1161.105 947.110 1160.841 947.220 1162.000 950.736 C 1163.159 954.252 1163.387 954.158 1164.637 957.637 C 1165.887 961.116 1165.765 961.166 1167.000 964.651 C 1168.235 968.136 1168.751 968.067 1169.577 971.577 C 1170.404 975.088 1171.780 976.088 1170.306 978.694 C 1168.833 981.299 1167.130 980.673 1163.683 982.000 C 1160.236 983.327 1160.204 983.250 1156.518 984.000 C 1152.832 984.750 1152.625 984.250 1148.939 985.000 C 1145.253 985.750 1145.460 986.250 1141.774 987.000 C 1138.088 987.750 1137.883 987.255 1134.195 988.000 C 1130.507 988.745 1130.707 989.229 1127.021 989.979 C 1123.336 990.729 1123.135 990.245 1119.451 991.000 C 1115.768 991.755 1115.973 992.250 1112.287 993.000 C 1108.601 993.750 1108.394 993.250 1104.708 994.000 C 1101.022 994.750 1101.229 995.250 1097.543 996.000 C 1093.857 996.750 1093.650 996.250 1089.964 997.000 C 1086.278 997.750 1086.428 998.112 1082.799 999.000 C 1079.170 999.888 1078.148 998.669 1075.448 1000.552 C 1072.749 1002.434 1072.862 1003.037 1072.000 1006.531 C 1071.138 1010.024 1072.000 1010.527 1072.000 1014.524 C 1072.000 1018.520 1072.000 1018.520 1072.000 1022.517 C 1072.000 1026.514 1072.000 1026.514 1072.000 1030.510 C 1072.000 1034.507 1072.000 1034.507 1072.000 1038.503 C 1072.000 1042.500 1072.000 1042.500 1072.000 1046.497 C 1072.000 1050.493 1071.738 1050.602 1072.000 1054.490 C 1072.262 1058.378 1070.990 1059.671 1073.049 1062.049 C 1075.107 1064.426 1076.439 1063.512 1080.234 1064.000 C 1084.028 1064.488 1084.230 1064.000 1088.227 1064.000 C 1092.223 1064.000 1092.223 1064.000 1096.220 1064.000 C 1100.217 1064.000 1100.217 1064.000 1104.213 1064.000 C 1108.210 1064.000 1108.210 1064.000 1112.206 1064.000 C 1116.203 1064.000 1116.203 1064.000 1120.200 1064.000 C 1124.196 1064.000 1124.196 1064.000 1128.193 1064.000 C 1132.189 1064.000 1132.189 1064.000 1136.186 1064.000 C 1140.183 1064.000 1140.183 1064.000 1144.179 1064.000 C 1148.176 1064.000 1148.176 1064.000 1152.172 1064.000 C 1156.169 1064.000 1156.169 1064.000 1160.166 1064.000 C 1164.162 1064.000 1164.162 1064.000 1168.159 1064.000 C 1172.155 1064.000 1172.155 1064.000 1176.152 1064.000 C 1180.149 1064.000 1180.149 1064.000 1184.145 1064.000 C 1188.142 1064.000 1188.142 1064.000 1192.138 1064.000 C 1196.135 1064.000 1196.135 1064.000 1200.132 1064.000 C 1204.128 1064.000 1204.128 1064.000 1208.125 1064.000 C 1212.122 1064.000 1212.122 1064.000 1216.118 1064.000 C 1220.115 1064.000 1220.115 1064.000 1224.111 1064.000 C 1228.108 1064.000 1228.108 1064.000 1232.105 1064.000 C 1236.101 1064.000 1236.101 1064.000 1240.098 1064.000 C 1244.094 1064.000 1244.094 1064.000 1248.091 1064.000 C 1252.088 1064.000 1252.088 1064.000 1256.084 1064.000 C 1260.081 1064.000 1260.081 1064.000 1264.077 1064.000 C 1268.074 1064.000 1268.074 1064.000 1272.071 1064.000 C 1276.067 1064.000 1276.067 1064.000 1280.064 1064.000 C 1284.060 1064.000 1284.060 1064.000 1288.057 1064.000 C 1292.054 1064.000 1292.054 1064.000 1296.050 1064.000 C 1300.047 1064.000 1300.047 1064.000 1304.043 1064.000 C 1308.040 1064.000 1308.040 1064.000 1312.037 1064.000 C 1316.033 1064.000 1316.033 1064.000 1320.030 1064.000 C 1324.026 1064.000 1324.026 1064.000 1328.023 1064.000 C 1332.020 1064.000 1332.020 1064.000 1336.016 1064.000 C 1340.013 1064.000 1340.013 1064.000 1344.009 1064.000 C 1348.006 1064.000 1348.006 1064.000 1352.003 1064.000 C 1355.999 1064.000 1355.999 1064.000 1359.996 1064.000 C 1363.992 1064.000 1363.992 1064.000 1367.989 1064.000 C 1371.986 1064.000 1372.380 1064.599 1375.982 1064.000 C 1379.584 1063.401 1380.642 1064.138 1382.397 1061.603 C 1384.151 1059.068 1382.849 1057.794 1383.000 1053.860 C 1383.151 1049.926 1383.000 1049.863 1383.000 1045.867 C 1383.000 1041.870 1383.000 1041.870 1383.000 1037.873 C 1383.000 1033.877 1383.000 1033.877 1383.000 1029.880 C 1383.000 1025.884 1383.000 1025.884 1383.000 1021.887 C 1383.000 1017.890 1383.000 1017.890 1383.000 1013.894 C 1383.000 1009.897 1383.963 1009.374 1383.000 1005.900 C 1382.037 1002.427 1381.904 1001.975 1379.150 1000.000 C 1376.396 998.025 1375.671 998.750 1371.985 998.000 C 1368.299 997.250 1368.092 997.750 1364.406 997.000 C 1360.720 996.250 1360.829 995.986 1357.241 995.000 C 1353.653 994.014 1353.703 993.893 1350.054 993.054 C 1346.405 992.215 1346.325 992.408 1342.645 991.645 C 1338.964 990.881 1338.952 990.911 1335.333 990.000 C 1331.714 989.089 1331.824 988.823 1328.168 988.000 C 1324.512 987.177 1324.395 987.459 1320.709 986.709 C 1317.023 985.959 1317.037 985.927 1313.424 985.000 C 1309.812 984.073 1309.922 983.806 1306.259 983.000 C 1302.597 982.194 1302.089 983.188 1298.774 981.774 C 1295.459 980.360 1295.089 980.183 1293.000 977.344 C 1290.911 974.506 1291.670 973.899 1290.420 970.420 C 1289.170 966.941 1289.235 966.914 1288.000 963.429 C 1286.765 959.944 1286.730 959.958 1285.480 956.480 C 1284.230 953.001 1284.235 952.998 1283.000 949.513 C 1281.765 946.028 1281.789 946.018 1280.539 942.539 C 1279.289 939.061 1279.235 939.083 1278.000 935.598 C 1276.765 932.113 1276.849 932.078 1275.599 928.599 C 1274.349 925.120 1274.235 925.168 1273.000 921.683 C 1271.765 918.198 1271.909 918.138 1270.659 914.659 C 1269.409 911.180 1269.235 911.252 1268.000 907.767 C 1266.765 904.282 1266.969 904.198 1265.719 900.719 C 1264.469 897.240 1264.235 897.337 1263.000 893.852 C 1261.765 890.367 1262.029 890.258 1260.779 886.779 C 1259.529 883.300 1259.235 883.422 1258.000 879.937 C 1256.765 876.452 1257.089 876.318 1255.839 872.839 C 1254.589 869.360 1254.235 869.506 1253.000 866.021 C 1251.765 862.536 1252.149 862.377 1250.899 858.899 C 1249.649 855.420 1249.235 855.591 1248.000 852.106 C 1246.765 848.621 1247.208 848.437 1245.958 844.958 C 1244.708 841.480 1244.240 841.674 1243.000 838.191 C 1241.760 834.708 1242.250 834.505 1241.000 831.026 C 1239.750 827.547 1239.407 827.689 1238.000 824.275 C 1236.593 820.862 1236.621 820.850 1235.371 817.371 C 1234.121 813.892 1234.235 813.845 1233.000 810.360 C 1231.765 806.875 1231.681 806.910 1230.431 803.431 C 1229.181 799.952 1229.235 799.930 1228.000 796.445 C 1226.765 792.960 1226.741 792.970 1225.491 789.491 C 1224.241 786.012 1224.235 786.014 1223.000 782.529 C 1221.765 779.044 1221.801 779.029 1220.551 775.551 C 1219.301 772.072 1219.235 772.099 1218.000 768.614 C 1216.765 765.129 1216.860 765.089 1215.610 761.610 C 1214.360 758.132 1214.235 758.184 1213.000 754.699 C 1211.765 751.214 1211.920 751.149 1210.670 747.670 C 1209.420 744.191 1209.235 744.268 1208.000 740.783 C 1206.765 737.298 1206.980 737.209 1205.730 733.730 C 1204.480 730.251 1204.235 730.353 1203.000 726.868 C 1201.765 723.383 1202.040 723.269 1200.790 719.790 C 1199.540 716.311 1199.235 716.438 1198.000 712.953 C 1196.765 709.467 1197.093 709.331 1195.850 705.850 C 1194.606 702.368 1194.261 702.511 1193.026 699.026 C 1191.791 695.541 1192.145 695.395 1190.910 691.910 C 1189.675 688.425 1189.321 688.571 1188.086 685.086 C 1186.851 681.601 1187.205 681.455 1185.970 677.970 C 1184.735 674.485 1184.388 674.628 1183.146 671.146 C 1181.904 667.664 1182.235 667.527 1181.000 664.042 C 1179.765 660.557 1179.456 660.685 1178.206 657.206 C 1176.956 653.727 1177.235 653.611 1176.000 650.126 C 1174.765 646.641 1174.516 646.745 1173.266 643.266 C 1172.016 639.787 1172.235 639.696 1171.000 636.211 C 1169.765 632.726 1169.576 632.804 1168.326 629.326 C 1167.076 625.847 1167.235 625.781 1166.000 622.296 C 1164.765 618.811 1164.635 618.864 1163.385 615.385 C 1162.135 611.907 1162.235 611.865 1161.000 608.380 C 1159.765 604.895 1159.695 604.924 1158.445 601.445 C 1157.195 597.966 1157.235 597.950 1156.000 594.465 C 1154.765 590.980 1154.755 590.984 1153.505 587.505 C 1152.255 584.026 1152.235 584.035 1151.000 580.550 C 1149.765 577.065 1149.815 577.044 1148.565 573.565 C 1147.315 570.086 1147.235 570.119 1146.000 566.634 C 1144.765 563.149 1144.875 563.104 1143.625 559.625 C 1142.375 556.146 1142.235 556.204 1141.000 552.719 C 1139.765 549.234 1139.935 549.164 1138.685 545.685 C 1137.435 542.206 1137.235 542.289 1136.000 538.804 C 1134.765 535.319 1134.995 535.223 1133.745 531.745 C 1132.495 528.266 1132.235 528.373 1131.000 524.888 C 1129.765 521.403 1130.054 521.283 1128.804 517.804 C 1127.554 514.326 1127.235 514.458 1126.000 510.973 C 1124.765 507.488 1125.114 507.343 1123.864 503.864 C 1122.614 500.385 1122.235 500.543 1121.000 497.058 C 1119.765 493.572 1120.174 493.403 1118.924 489.924 C 1117.674 486.445 1117.235 486.627 1116.000 483.142 C 1114.765 479.657 1115.234 479.463 1113.984 475.984 C 1112.734 472.505 1112.246 472.707 1111.000 469.227 C 1109.754 465.746 1110.250 465.541 1109.000 462.062 C 1107.750 458.583 1107.250 458.790 1106.000 455.311 C 1104.750 451.833 1105.250 451.626 1104.000 448.147 C 1102.750 444.668 1102.250 444.875 1101.000 441.396 C 1099.750 437.917 1100.250 437.710 1099.000 434.231 C 1097.750 430.753 1097.250 430.960 1096.000 427.481 C 1094.750 424.002 1095.250 423.795 1094.000 420.316 C 1092.750 416.837 1092.250 417.044 1091.000 413.565 C 1089.750 410.087 1090.250 409.879 1089.000 406.401 C 1087.750 402.922 1087.250 403.129 1086.000 399.650 C 1084.750 396.171 1085.250 395.964 1084.000 392.485 C 1082.750 389.006 1082.250 389.214 1081.000 385.735 C 1079.750 382.256 1080.250 382.049 1079.000 378.570 C 1077.750 375.091 1077.250 375.298 1076.000 371.819 C 1074.750 368.341 1075.250 368.133 1074.000 364.655 C 1072.750 361.176 1072.250 361.383 1071.000 357.904 C 1069.750 354.425 1070.250 354.218 1069.000 350.739 C 1067.750 347.260 1067.250 347.468 1066.000 343.989 C 1064.750 340.510 1065.237 340.308 1064.000 336.824 C 1062.763 333.340 1062.302 333.531 1061.052 330.052 C 1059.802 326.573 1060.235 326.394 1059.000 322.909 C 1057.765 319.424 1058.613 318.339 1056.112 316.112 C 1053.610 313.885 1052.771 314.528 1048.993 314.000 C 1045.215 313.472 1044.893 313.750 1041.000 314.000 Z M 992.000 458.000 C 994.134 457.202 995.159 458.752 997.000 461.343 C 998.841 463.934 998.113 464.881 999.363 468.363 C 1000.613 471.845 1000.841 471.751 1002.000 475.271 C 1003.159 478.791 1002.750 478.960 1004.000 482.442 C 1005.250 485.924 1005.750 485.717 1007.000 489.199 C 1008.250 492.681 1007.904 492.824 1009.000 496.370 C 1010.096 499.916 1010.133 499.901 1011.383 503.383 C 1012.633 506.865 1012.846 506.777 1014.000 510.298 C 1015.154 513.820 1014.887 513.931 1016.000 517.470 C 1017.113 521.008 1017.203 520.971 1018.453 524.453 C 1019.703 527.935 1019.863 527.869 1021.000 531.398 C 1022.137 534.927 1021.869 535.038 1023.000 538.569 C 1024.131 542.100 1024.273 542.041 1025.523 545.523 C 1026.773 549.005 1026.881 548.961 1028.000 552.497 C 1029.119 556.033 1028.852 556.144 1030.000 559.668 C 1031.148 563.193 1031.344 563.112 1032.594 566.594 C 1033.844 570.076 1033.898 570.053 1035.000 573.597 C 1036.102 577.140 1035.834 577.251 1037.000 580.768 C 1038.166 584.285 1038.414 584.182 1039.664 587.664 C 1040.914 591.146 1040.916 591.145 1042.000 594.696 C 1043.084 598.247 1042.816 598.358 1044.000 601.867 C 1045.184 605.377 1045.484 605.252 1046.734 608.734 C 1047.984 612.216 1047.934 612.237 1049.000 615.795 C 1050.066 619.353 1049.750 619.485 1051.000 622.967 C 1052.250 626.449 1052.750 626.241 1054.000 629.724 C 1055.250 633.206 1054.812 633.387 1056.000 636.895 C 1057.188 640.402 1057.504 640.272 1058.754 643.754 C 1060.004 647.236 1059.938 647.263 1061.000 650.823 C 1062.062 654.383 1061.794 654.494 1063.000 657.994 C 1064.206 661.494 1064.574 661.342 1065.824 664.824 C 1067.074 668.306 1066.939 668.362 1068.000 671.922 C 1069.061 675.483 1068.843 675.573 1070.066 679.066 C 1071.290 682.559 1071.661 682.405 1072.894 685.894 C 1074.128 689.383 1073.939 689.461 1075.000 693.022 C 1076.061 696.582 1075.895 696.651 1077.136 700.136 C 1078.377 703.622 1078.749 703.468 1079.965 706.965 C 1081.180 710.461 1080.939 710.560 1082.000 714.121 C 1083.061 717.682 1082.957 717.725 1084.207 721.207 C 1085.457 724.689 1085.802 724.546 1087.000 728.049 C 1088.198 731.553 1087.931 731.663 1089.000 735.220 C 1090.069 738.777 1090.027 738.795 1091.277 742.277 C 1092.527 745.759 1092.819 745.638 1094.000 749.149 C 1095.181 752.659 1094.913 752.770 1096.000 756.320 C 1097.087 759.869 1097.097 759.865 1098.347 763.347 C 1099.597 766.829 1101.442 767.335 1101.000 770.248 C 1100.558 773.161 1099.686 773.812 1096.581 775.000 C 1093.476 776.188 1092.581 775.000 1088.581 775.000 C 1084.581 775.000 1084.581 775.000 1080.582 775.000 C 1076.582 775.000 1076.582 775.000 1072.582 775.000 C 1068.582 775.000 1068.582 775.000 1064.582 775.000 C 1060.583 775.000 1060.583 775.000 1056.583 775.000 C 1052.583 775.000 1052.583 775.000 1048.583 775.000 C 1044.583 775.000 1044.583 775.000 1040.584 775.000 C 1036.584 775.000 1036.584 775.000 1032.584 775.000 C 1028.584 775.000 1028.584 775.000 1024.584 775.000 C 1020.584 775.000 1020.584 775.000 1016.585 775.000 C 1012.585 775.000 1012.585 775.000 1008.585 775.000 C 1004.585 775.000 1004.585 775.000 1000.585 775.000 C 996.586 775.000 996.586 775.000 992.586 775.000 C 988.586 775.000 988.586 775.000 984.586 775.000 C 980.586 775.000 980.586 775.000 976.587 775.000 C 972.587 775.000 972.587 775.000 968.587 775.000 C 964.587 775.000 964.587 775.000 960.587 775.000 C 956.587 775.000 956.587 775.000 952.588 775.000 C 948.588 775.000 948.588 775.000 944.588 775.000 C 940.588 775.000 940.588 775.000 936.588 775.000 C 932.589 775.000 932.589 775.000 928.589 775.000 C 924.589 775.000 924.589 775.000 920.589 775.000 C 916.589 775.000 916.589 775.000 912.590 775.000 C 908.590 775.000 908.590 775.000 904.590 775.000 C 900.590 775.000 900.590 775.000 896.590 775.000 C 892.591 775.000 892.238 775.645 888.591 775.000 C 884.943 774.355 883.192 774.876 882.000 772.420 C 880.808 769.963 882.824 768.761 883.824 765.176 C 884.824 761.590 884.763 761.564 886.000 758.077 C 887.237 754.590 887.524 754.708 888.774 751.226 C 890.024 747.744 889.763 747.636 891.000 744.149 C 892.237 740.662 892.473 740.759 893.723 737.277 C 894.973 733.795 894.931 733.778 896.000 730.221 C 897.069 726.664 896.750 726.532 898.000 723.050 C 899.250 719.568 899.750 719.775 901.000 716.293 C 902.250 712.811 901.814 712.630 903.000 709.121 C 904.186 705.613 904.492 705.740 905.742 702.258 C 906.992 698.776 906.763 698.681 908.000 695.193 C 909.237 691.706 909.442 691.791 910.692 688.308 C 911.942 684.826 911.763 684.752 913.000 681.265 C 914.237 677.778 914.391 677.841 915.641 674.359 C 916.891 670.877 916.910 670.885 918.000 667.337 C 919.090 663.788 918.750 663.648 920.000 660.166 C 921.250 656.684 921.750 656.891 923.000 653.409 C 924.250 649.927 923.835 649.755 925.000 646.237 C 926.165 642.720 926.410 642.822 927.660 639.340 C 928.910 635.858 928.763 635.797 930.000 632.309 C 931.237 628.822 931.359 628.873 932.609 625.391 C 933.859 621.909 933.763 621.868 935.000 618.381 C 936.237 614.894 936.309 614.923 937.559 611.441 C 938.809 607.959 938.890 607.993 940.000 604.453 C 941.110 600.913 940.843 600.802 942.000 597.282 C 943.157 593.761 943.379 593.853 944.629 590.371 C 945.879 586.889 945.763 586.841 947.000 583.354 C 948.237 579.866 948.328 579.904 949.578 576.422 C 950.828 572.940 950.763 572.913 952.000 569.425 C 953.237 565.938 953.277 565.955 954.527 562.473 C 955.777 558.991 955.882 559.034 957.000 555.497 C 958.118 551.961 957.750 551.808 959.000 548.326 C 960.250 544.844 960.750 545.051 962.000 541.569 C 963.250 538.087 962.863 537.927 964.000 534.398 C 965.137 530.869 965.297 530.935 966.547 527.453 C 967.797 523.971 967.763 523.957 969.000 520.470 C 970.237 516.982 970.246 516.986 971.496 513.504 C 972.746 510.022 972.763 510.029 974.000 506.542 C 975.237 503.054 975.195 503.037 976.445 499.555 C 977.695 496.073 977.861 496.141 979.000 492.613 C 980.139 489.085 979.750 488.924 981.000 485.442 C 982.250 481.960 982.750 482.167 984.000 478.685 C 985.250 475.203 984.884 475.051 986.000 471.514 C 987.116 467.976 986.965 467.914 988.465 464.535 C 989.965 461.157 989.866 458.798 992.000 458.000 Z"/>
  </g>
</svg>
