<?xml version="1.0" standalone="no"?>
<!DOCTYPE svg PUBLIC "-//W3C//DTD SVG 20010904//EN"
 "http://www.w3.org/TR/2001/REC-SVG-20010904/DTD/svg10.dtd">
<svg version="1.0" xmlns="http://www.w3.org/2000/svg"
 width="404.000000pt" height="312.000000pt" viewBox="0 0 404.000000 312.000000"
 preserveAspectRatio="xMidYMid meet">

<g transform="translate(0.000000,312.000000) scale(0.100000,-0.100000)"
fill="#000000" stroke="none">
<path d="M2846 2712 c-26 -18 -72 -77 -139 -177 -55 -82 -112 -166 -127 -185
-15 -19 -60 -82 -101 -140 -40 -58 -100 -139 -131 -180 -32 -41 -96 -125 -143
-187 -47 -62 -89 -114 -93 -117 -13 -8 -155 37 -194 62 -46 29 -68 71 -68 134
0 26 -4 48 -10 48 -10 0 -152 -45 -185 -59 -160 -68 -240 -123 -286 -197 -57
-93 -75 -215 -41 -284 37 -76 168 -141 310 -154 101 -9 102 -13 30 -85 -199
-199 -399 -307 -629 -340 -81 -11 -151 1 -198 36 -35 27 -77 105 -87 163 -8
52 -25 91 -37 87 -28 -9 -187 -304 -187 -346 0 -11 -5 -23 -10 -26 -12 -8 -13
-169 -1 -193 5 -9 17 -37 27 -61 34 -82 121 -151 230 -180 49 -13 219 -15 260
-2 16 5 49 15 74 22 53 16 133 56 192 97 49 34 340 328 468 472 86 96 141 157
260 284 101 109 105 113 126 123 10 6 60 20 109 32 50 12 106 26 125 31 73 18
120 22 120 10 0 -6 -21 -73 -46 -148 -57 -168 -81 -257 -119 -441 -16 -74 -16
-93 -5 -150 21 -107 58 -165 136 -213 62 -38 122 -53 214 -52 70 0 94 5 135
26 57 28 58 34 26 118 -23 60 -29 210 -12 279 5 20 15 63 21 96 11 56 15 78
41 195 11 50 27 112 39 150 4 14 17 57 29 95 43 143 211 643 346 1030 22 65
26 108 13 134 -16 30 -110 88 -263 163 -44 22 -88 44 -97 49 -31 16 -82 9
-122 -19z m-126 -706 c-29 -89 -67 -204 -85 -256 l-31 -95 -122 -3 c-71 -1
-122 1 -122 7 0 8 84 126 100 141 3 3 46 59 96 125 50 66 117 155 150 198 42
55 60 73 63 61 2 -10 -20 -90 -49 -178z"/>
</g>
</svg>
