<?xml version="1.0" encoding="utf-8"?>
<!-- Svg Vector Icons : http://www.onlinewebfonts.com/icon -->
<!DOCTYPE svg PUBLIC "-//W3C//DTD SVG 1.1//EN" "http://www.w3.org/Graphics/SVG/1.1/DTD/svg11.dtd">
<svg version="1.1" xmlns="http://www.w3.org/2000/svg" xmlns:xlink="http://www.w3.org/1999/xlink" x="0px" y="0px" viewBox="0 0 256 256" enable-background="new 0 0 256 256" xml:space="preserve">
<metadata> Svg Vector Icons : http://www.onlinewebfonts.com/icon </metadata>
<g><g><path fill="#000000" d="M176.4,21.3c-16.6,2.7-33.3,5.4-50,8.2C83.7,41.4,42.1,57.4,10,80.3v2.5c1.4,1.1,2.7,2.2,4.1,3.3c3.6,0.2,7.1,0.5,10.6,0.8c22.6-22.3,73.5-30.6,116.4-31.1c25.6-0.3,53.7-1.3,62.3,15.6c-0.2,40-63.9,42.4-77,68c-0.3,0.8-0.6,1.7-0.8,2.5c0.3,0.6,0.6,1.1,0.8,1.7c19.2,3.9,60.4-6.5,56.5,21.3c-4.8,34.7-92.4,76.9-109.8,32.8c1.5-15.8,12.8-21.6,20.5-31.1c18.4-22.8,74.5-70,78.7-99.2v-0.8c-14.6-6.5-32,10.7-39.4,18c-28.4,28.3-54.8,61.8-78.7,94.3c-6.4,8.7-28.1,31.6-17.2,47.5c8.5,12.5,41.5,8.8,57.4,4.9c45.6-11,99.1-29.8,122.9-63.1c17.9-25.1-9.3-51.4-41-42.6h-8.2v-3.3c24.9-15.3,66.7-31.5,76.2-61.5C255.6,25.6,206.1,20.6,176.4,21.3z"/></g></g>
</svg>