<?xml version="1.0" standalone="no"?>
<!DOCTYPE svg PUBLIC "-//W3C//DTD SVG 20010904//EN"
 "http://www.w3.org/TR/2001/REC-SVG-20010904/DTD/svg10.dtd">
<svg version="1.0" xmlns="http://www.w3.org/2000/svg"
 width="352.000000pt" height="308.000000pt" viewBox="0 0 352.000000 308.000000"
 preserveAspectRatio="xMidYMid meet">

<g transform="translate(0.000000,308.000000) scale(0.100000,-0.100000)"
fill="#000000" stroke="none">
<path d="M2105 2829 c-334 -79 -567 -256 -804 -611 -107 -160 -184 -317 -239
-483 -49 -151 -64 -213 -98 -395 -29 -160 -40 -356 -25 -430 7 -30 17 -77 22
-105 20 -94 84 -211 157 -284 109 -110 236 -160 411 -161 131 0 221 24 366 97
129 66 259 176 348 297 103 138 227 465 227 598 0 105 -28 95 -121 -45 -68
-101 -187 -247 -222 -270 -12 -8 -31 -23 -42 -34 -91 -87 -267 -163 -377 -163
-45 0 -60 4 -135 37 -168 72 -206 288 -111 638 33 124 130 332 223 480 173
276 346 442 543 523 72 29 103 28 136 -4 62 -63 22 -170 -175 -466 -56 -84
-112 -166 -125 -181 -33 -39 -30 -60 11 -91 95 -73 176 -73 285 -2 117 77 226
219 288 376 137 349 43 606 -248 676 -63 15 -235 17 -295 3z"/>
</g>
</svg>
