<?xml version="1.0" standalone="no"?>
<!DOCTYPE svg PUBLIC "-//W3C//DTD SVG 20010904//EN"
 "http://www.w3.org/TR/2001/REC-SVG-20010904/DTD/svg10.dtd">
<svg version="1.0" xmlns="http://www.w3.org/2000/svg"
 width="312.000000pt" height="304.000000pt" viewBox="0 0 312.000000 304.000000"
 preserveAspectRatio="xMidYMid meet">

<g transform="translate(0.000000,304.000000) scale(0.100000,-0.100000)"
fill="#000000" stroke="none">
<path d="M1260 2666 c-83 -12 -164 -43 -172 -67 -4 -12 1 -51 22 -176 5 -35
14 -89 20 -120 23 -140 27 -164 33 -169 3 -3 59 13 124 36 172 62 189 63 184
10 -3 -30 -96 -320 -211 -650 -130 -375 -210 -622 -210 -649 0 -11 -5 -23 -10
-26 -5 -3 -10 -39 -10 -80 0 -57 5 -83 23 -115 31 -59 97 -114 159 -134 45
-14 58 -24 83 -63 34 -55 73 -94 109 -111 14 -7 37 -17 50 -23 14 -7 35 -9 48
-6 79 19 107 29 190 71 401 199 846 575 1002 846 26 45 70 134 99 200 71 159
95 356 62 495 -8 33 -31 94 -51 135 -59 120 -213 263 -405 374 -99 58 -277
136 -354 156 -16 5 -55 15 -85 23 -30 8 -86 20 -125 26 -38 7 -95 16 -126 21
-74 13 -343 11 -449 -4z m865 -460 c124 -33 216 -99 263 -191 23 -45 26 -61
26 -155 0 -160 -48 -287 -184 -491 -148 -219 -410 -440 -646 -545 -86 -38
-109 -30 -85 28 6 13 20 57 32 98 12 41 30 102 40 135 11 33 23 74 28 90 37
124 76 249 91 295 10 30 33 102 50 160 18 58 45 143 60 190 15 47 47 146 70
220 62 200 48 180 132 180 40 0 96 -6 123 -14z"/>
</g>
</svg>
