<?xml version="1.0" standalone="no"?>
<!DOCTYPE svg PUBLIC "-//W3C//DTD SVG 20010904//EN"
 "http://www.w3.org/TR/2001/REC-SVG-20010904/DTD/svg10.dtd">
<svg version="1.0" xmlns="http://www.w3.org/2000/svg"
 width="312.000000pt" height="314.000000pt" viewBox="0 0 312.000000 314.000000"
 preserveAspectRatio="xMidYMid meet">

<g transform="translate(0.000000,314.000000) scale(0.100000,-0.100000)"
fill="#000000" stroke="none">
<path d="M1856 2696 c-157 -56 -277 -133 -392 -252 -167 -172 -271 -385 -250
-514 15 -92 86 -231 147 -286 10 -9 19 -21 19 -26 0 -5 -35 -24 -77 -44 -187
-84 -257 -129 -367 -234 -106 -101 -190 -237 -216 -352 -7 -29 -16 -63 -21
-76 -13 -33 -11 -169 2 -211 30 -92 53 -140 92 -192 102 -136 184 -171 476
-205 51 -6 77 -3 231 33 192 44 358 134 504 274 115 109 193 217 270 374 80
165 99 223 100 305 1 59 -18 130 -35 130 -9 0 -32 -28 -92 -111 -70 -99 -103
-136 -201 -233 -79 -76 -215 -175 -286 -208 -138 -64 -228 -88 -329 -88 -89 0
-124 14 -170 65 -44 50 -58 104 -40 158 44 138 136 254 274 346 77 52 105 66
210 106 120 46 225 103 225 123 0 8 -4 31 -10 51 -5 20 -12 48 -15 64 l-5 27
-95 0 c-147 0 -181 22 -178 114 8 203 209 440 461 544 51 20 102 29 102 17 0
-6 -38 -74 -59 -105 -62 -91 -103 -232 -105 -360 -1 -108 4 -119 88 -189 60
-49 103 -63 144 -45 41 17 47 32 61 149 19 153 36 191 181 410 78 117 130 218
130 250 0 33 -113 95 -173 95 -36 0 -101 -16 -133 -31 -19 -10 -29 -4 -75 40
-79 75 -146 105 -244 108 -64 2 -94 -2 -149 -21z"/>
</g>
</svg>
