<?xml version="1.0" standalone="no"?>
<!DOCTYPE svg PUBLIC "-//W3C//DTD SVG 20010904//EN"
 "http://www.w3.org/TR/2001/REC-SVG-20010904/DTD/svg10.dtd">
<svg version="1.0" xmlns="http://www.w3.org/2000/svg"
 width="352.000000pt" height="324.000000pt" viewBox="0 0 352.000000 324.000000"
 preserveAspectRatio="xMidYMid meet">

<g transform="translate(0.000000,324.000000) scale(0.100000,-0.100000)"
fill="#000000" stroke="none">
<path d="M2795 2912 c-6 -5 -44 -19 -85 -31 -41 -12 -86 -26 -100 -31 -14 -4
-45 -13 -70 -20 -25 -7 -56 -16 -70 -20 -14 -4 -59 -18 -100 -30 -41 -12 -86
-25 -100 -30 -14 -4 -59 -18 -100 -30 -41 -12 -86 -25 -100 -30 -14 -4 -59
-18 -100 -30 -41 -12 -100 -30 -130 -39 -53 -18 -115 -37 -265 -82 -151 -46
-489 -161 -538 -184 -112 -51 -168 -113 -188 -205 -4 -19 -10 -50 -14 -67 -10
-44 1 -43 111 11 78 39 248 102 339 126 107 29 229 59 280 69 33 7 79 17 102
22 23 5 60 9 82 9 48 0 50 -9 21 -75 -11 -25 -29 -65 -40 -90 -11 -25 -20 -47
-20 -50 0 -2 -11 -28 -24 -57 -14 -30 -34 -78 -46 -108 -12 -30 -28 -71 -37
-90 -8 -19 -19 -44 -23 -55 -38 -95 -39 -97 -130 -124 -240 -73 -421 -147
-467 -191 -13 -11 -30 -35 -39 -52 -14 -27 -15 -39 -4 -84 7 -29 23 -64 35
-79 l21 -28 50 38 c103 79 281 145 390 145 30 0 35 -3 31 -17 -3 -10 -37 -110
-76 -221 -74 -218 -137 -354 -204 -441 -65 -85 -170 -174 -252 -215 -68 -33
-74 -39 -65 -57 6 -11 30 -33 53 -50 39 -28 59 -38 130 -68 36 -14 198 -14
234 0 82 34 103 47 162 103 35 34 85 93 110 131 51 76 77 127 141 280 13 28
64 187 90 275 12 41 30 100 40 130 9 30 23 75 30 100 24 79 35 83 155 50 125
-35 194 -22 265 50 48 48 70 101 70 170 0 37 -4 43 -47 71 -52 33 -66 34 -276
13 -44 -4 -72 -3 -79 4 -10 10 -1 48 32 127 4 11 18 47 30 80 12 33 26 69 30
80 4 11 27 70 51 130 23 61 50 122 60 136 21 30 64 47 199 79 203 48 433 135
533 202 44 30 63 51 82 90 62 129 3 268 -113 268 -26 0 -52 -4 -57 -8z"/>
</g>
</svg>
