<?xml version="1.0" standalone="no"?>
<!DOCTYPE svg PUBLIC "-//W3C//DTD SVG 20010904//EN"
 "http://www.w3.org/TR/2001/REC-SVG-20010904/DTD/svg10.dtd">
<svg version="1.0" xmlns="http://www.w3.org/2000/svg"
 width="346.000000pt" height="352.000000pt" viewBox="0 0 346.000000 352.000000"
 preserveAspectRatio="xMidYMid meet">

<g transform="translate(0.000000,352.000000) scale(0.100000,-0.100000)"
fill="#000000" stroke="none">
<path d="M2275 3244 c-69 -7 -244 -58 -350 -102 -72 -30 -244 -120 -293 -153
-276 -189 -514 -469 -678 -799 -68 -137 -84 -181 -109 -302 -33 -161 -11 -350
58 -497 56 -119 172 -219 294 -256 93 -28 241 -15 340 31 66 31 161 91 213
136 48 41 178 188 199 225 16 29 25 6 11 -29 -22 -61 -73 -163 -104 -208 -84
-127 -219 -271 -306 -329 -106 -71 -155 -86 -275 -86 -80 0 -115 5 -174 25
l-74 24 -16 -24 c-21 -31 -41 -97 -41 -136 0 -45 38 -152 71 -200 77 -113 221
-184 370 -184 147 0 275 52 420 169 154 124 274 292 372 522 35 81 90 237 107
304 5 17 15 55 23 85 15 59 30 130 47 224 29 167 -7 287 -118 392 -46 43 -133
84 -180 84 -43 0 -34 9 -208 -220 -81 -106 -119 -148 -212 -233 -73 -66 -133
-99 -214 -117 -50 -11 -60 -11 -82 4 -45 29 -61 72 -59 161 3 150 61 324 183
552 60 111 268 355 405 474 93 81 233 162 311 179 46 11 48 19 -31 -155 -80
-177 -94 -209 -110 -256 -19 -53 -19 -132 -1 -168 52 -100 236 -172 324 -127
44 23 57 45 91 156 57 185 101 289 171 405 62 104 80 152 80 219 0 103 -34
147 -143 187 -52 19 -225 32 -312 23z"/>
</g>
</svg>
