<?xml version="1.0" standalone="no"?>
<!DOCTYPE svg PUBLIC "-//W3C//DTD SVG 20010904//EN"
 "http://www.w3.org/TR/2001/REC-SVG-20010904/DTD/svg10.dtd">
<svg version="1.0" xmlns="http://www.w3.org/2000/svg"
 width="346.000000pt" height="314.000000pt" viewBox="0 0 346.000000 314.000000"
 preserveAspectRatio="xMidYMid meet">

<g transform="translate(0.000000,314.000000) scale(0.100000,-0.100000)"
fill="#000000" stroke="none">
<path d="M2335 2728 c-361 -46 -703 -217 -971 -482 -116 -116 -175 -222 -204
-368 -11 -55 -11 -77 0 -125 13 -61 57 -136 91 -153 89 -48 229 -52 316 -8 21
10 22 17 21 112 -2 113 -3 111 94 255 158 234 372 396 692 525 98 39 136 45
136 21 0 -9 -15 -48 -34 -88 -19 -40 -44 -94 -56 -122 -52 -117 -412 -838
-460 -920 -60 -104 -196 -310 -248 -375 -62 -78 -169 -177 -219 -201 -73 -36
-180 -33 -250 7 -28 16 -64 40 -79 53 -26 22 -27 23 -38 5 -76 -132 -31 -319
108 -441 119 -105 268 -132 411 -73 124 50 196 105 301 232 46 55 151 218 257
398 42 72 212 413 237 475 4 11 15 36 23 55 8 19 32 78 52 130 20 52 40 104
45 115 4 11 18 47 30 80 12 33 26 69 31 80 10 24 117 350 148 450 24 79 28
193 9 228 -42 73 -109 113 -234 136 -67 12 -106 12 -209 -1z"/>
</g>
</svg>
