<?xml version="1.0" standalone="no"?>
<!DOCTYPE svg PUBLIC "-//W3C//DTD SVG 20010904//EN"
 "http://www.w3.org/TR/2001/REC-SVG-20010904/DTD/svg10.dtd">
<svg version="1.0" xmlns="http://www.w3.org/2000/svg"
 width="334.000000pt" height="354.000000pt" viewBox="0 0 334.000000 354.000000"
 preserveAspectRatio="xMidYMid meet">

<g transform="translate(0.000000,354.000000) scale(0.100000,-0.100000)"
fill="#000000" stroke="none">
<path d="M2065 3287 c-240 -59 -379 -138 -550 -311 -125 -126 -165 -202 -165
-313 0 -81 19 -132 70 -184 65 -68 161 -88 251 -53 34 14 40 20 34 38 -41 136
-44 208 -11 287 37 90 143 219 230 278 48 33 150 71 190 71 l27 0 -6 -77 c-8
-103 -15 -130 -101 -388 -72 -216 -102 -305 -204 -595 -28 -80 -71 -206 -96
-280 -25 -74 -53 -139 -62 -145 -9 -5 -44 -25 -77 -43 -33 -19 -84 -47 -112
-63 -29 -16 -79 -43 -110 -60 -160 -88 -289 -184 -413 -308 -110 -110 -131
-137 -167 -211 -45 -93 -56 -122 -71 -190 -35 -153 -35 -158 -22 -207 36 -139
84 -205 179 -250 77 -35 222 -37 325 -4 253 82 469 268 622 536 39 69 51 93
94 190 12 28 33 74 46 103 13 29 24 56 24 60 0 4 7 15 14 25 18 24 49 11 103
-44 37 -37 103 -151 103 -176 0 -21 41 -93 53 -93 21 0 89 62 118 109 25 38
29 55 29 114 0 98 -40 177 -142 279 -42 42 -95 89 -118 104 -22 15 -40 34 -40
43 0 9 25 88 55 176 31 88 94 275 141 415 46 140 89 264 94 275 11 24 79 227
90 270 5 17 21 71 36 120 21 69 27 111 28 180 0 83 -2 95 -34 159 -39 79 -92
124 -182 157 -58 21 -201 25 -273 6z m-515 -2020 c0 -7 -4 -17 -9 -22 -4 -6
-25 -40 -45 -77 -20 -38 -52 -98 -73 -135 -143 -266 -370 -505 -464 -491 -22
3 -24 8 -27 70 -3 59 1 75 29 130 109 216 275 392 475 504 62 34 114 44 114
21z"/>
</g>
</svg>
